<svg id="Слой_1" data-name="Слой 1" xmlns="http://www.w3.org/2000/svg" viewBox="0 0 149.73 89.95"><defs><style>.cls-1{fill:#1e81f1;stroke:#fff;stroke-miterlimit:10;stroke-width:16px;}</style></defs><path class="cls-1" d="M958.93,187.93l-57.24-33.05a3.92,3.92,0,0,0-5.88,3.4v66.1a3.92,3.92,0,0,0,5.88,3.39l57.24-33.05A3.92,3.92,0,0,0,958.93,187.93Z" transform="translate(-887.81 -146.35)"/><path class="cls-1" d="M966.42,187.93l57.24-33.05a3.92,3.92,0,0,1,5.88,3.4v66.1a3.92,3.92,0,0,1-5.88,3.39l-57.24-33.05A3.92,3.92,0,0,1,966.42,187.93Z" transform="translate(-887.81 -146.35)"/></svg>