<svg id="Слой_1" data-name="Слой 1" xmlns="http://www.w3.org/2000/svg" viewBox="0 0 149.73 89.95"><defs><style>.cls-1{fill:red;stroke:#fff;stroke-miterlimit:10;stroke-width:16px;}</style></defs><path class="cls-1" d="M960.93,184.93l-57.24-33.05a3.92,3.92,0,0,0-5.88,3.4v66.1a3.92,3.92,0,0,0,5.88,3.39l57.24-33.05A3.92,3.92,0,0,0,960.93,184.93Z" transform="translate(-889.81 -143.35)"/><path class="cls-1" d="M968.42,184.93l57.24-33.05a3.92,3.92,0,0,1,5.88,3.4v66.1a3.92,3.92,0,0,1-5.88,3.39l-57.24-33.05A3.92,3.92,0,0,1,968.42,184.93Z" transform="translate(-889.81 -143.35)"/></svg>